<?xml version="1.0" encoding="UTF-8"?>
<svg width="24px" height="22px" viewBox="0 0 24 22" version="1.1" xmlns="http://www.w3.org/2000/svg" xmlns:xlink="http://www.w3.org/1999/xlink">
    <!-- Generator: Sketch 49 (51002) - http://www.bohemiancoding.com/sketch -->
    <title>folder</title>
    <desc>Created with Sketch.</desc>
    <defs>
        <linearGradient x1="3.01804996%" y1="4.85611704%" x2="96.1658126%" y2="94.1241065%" id="linearGradient-1">
            <stop stop-color="#D5E7F2" offset="0%"></stop>
            <stop stop-color="#85A4C3" offset="100%"></stop>
        </linearGradient>
        <linearGradient x1="96.1658126%" y1="94.1241065%" x2="3.01804996%" y2="4.85611704%" id="linearGradient-2">
            <stop stop-color="#D5E7F2" offset="0%"></stop>
            <stop stop-color="#85A4C3" offset="100%"></stop>
        </linearGradient>
        <linearGradient x1="3.01804996%" y1="4.85611704%" x2="96.1658126%" y2="94.1241065%" id="linearGradient-3">
            <stop stop-color="#D5E7F2" offset="0%"></stop>
            <stop stop-color="#AACAE1" offset="100%"></stop>
        </linearGradient>
    </defs>
    <g id="Page-1" stroke="none" stroke-width="1" fill="none" fill-rule="evenodd">
        <g id="folder" fill-rule="nonzero">
            <path d="M2,4 C0.8954,4 0,4.9 0,6 L0,20 C0,21.1 0.89543,22 2,22 L22,22 C23.105,22 24,21.1 24,20 L24,6 C24,4.9 23.105,4 22,4 L2,4 Z" id="Shape" fill="url(#linearGradient-1)"></path>
            <path d="M3,0 C1.8954,0 1,0.9 1,2 L1,16 C1,17.1 1.8954,18 3,18 L14,18 L19,18 L21,18 C22.105,18 23,17.1 23,16 L23,7 L23,4 C23,2.9 22.105,2 21,2 L19,2 L14,2 L13,2 L10,0 L3,0 Z" id="Shape" fill="url(#linearGradient-2)"></path>
            <path d="M23,13 L23,5 C23,3.9 22.105,3 21,3 L10,3 L5,3 L3,3 C1.8954,3 1,3.9 1,5 L1,13 L23,13 Z" id="Shape" fill="#6C8BAB"></path>
            <path d="M2,4 C0.8954,4 0,4.9 0,6 L0,12 L0,13 L0,19 C0,20.1 0.89543,21 2,21 L22,21 C23.105,21 24,20.1 24,19 L24,13 L24,12 L24,6 C24,4.9 23.105,4 22,4 L2,4 Z" id="Shape" fill="url(#linearGradient-3)"></path>
        </g>
    </g>
</svg>