<svg enable-background="new 0 0 67 67" height="67" viewBox="0 0 67 67" width="67" xmlns="http://www.w3.org/2000/svg"><path clip-rule="evenodd" d="m34.84 46.38c-4.82.256-7.075-.832-9.142-2.809-2.308-2.209-1.381-4.728.499-4.855 1.879-.128 3.007 2.172 4.01 2.812 1.002.638 4.812 2.09 6.826-.257 2.191-2.555-1.458-3.877-4.134-4.277-3.819-.576-8.642-2.684-8.267-6.836.375-4.149 3.457-6.277 6.7-6.577 4.134-.383 6.825.639 8.954 2.49 2.461 2.141 1.129 4.533-.438 4.726-1.562.191-3.316-3.521-6.761-3.576-3.551-.057-5.95 3.768-1.567 4.854 4.385 1.086 9.081 1.532 10.772 5.62s-2.629 8.428-7.452 8.685zm13.591-9.724c.091-.681.143-1.372.143-2.075 0-8.446-6.784-15.294-15.152-15.294-.832 0-1.647.069-2.441.201-1.423-.94-3.117-1.488-4.939-1.488-4.996 0-9.042 4.107-9.042 9.175 0 1.844.535 3.557 1.456 4.995-.124.786-.188 1.591-.188 2.41 0 8.447 6.781 15.294 15.151 15.294.945 0 1.865-.093 2.759-.257 1.389.874 3.026 1.383 4.78 1.383 4.995 0 9.042-4.108 9.042-9.176 0-1.915-.577-3.696-1.569-5.168zm-45.431-32.656h60v60h-60z" fill="#3e9dd7" fill-rule="evenodd"/></svg>