<svg enable-background="new 0 0 67 67" height="67" viewBox="0 0 67 67" width="67" xmlns="http://www.w3.org/2000/svg"><path clip-rule="evenodd" d="m42.527 41.34c-.278 0-.478.078-.6.244-.121.155-.18.424-.18.796v.896h1.543v-.896c0-.371-.062-.64-.185-.796-.116-.166-.313-.244-.578-.244zm-6.018-.032c.234 0 .417.078.544.231.123.154.185.383.185.683v4.583c0 .286-.053.487-.153.611-.1.127-.256.19-.47.19-.148 0-.287-.034-.421-.097-.135-.062-.274-.17-.415-.313v-5.531c.119-.122.239-.213.36-.271.121-.059.244-.086.37-.086zm5.239 3.349v1.673c0 .468.057.791.17.974.118.18.313.269.592.269.289 0 .491-.076.606-.229.114-.153.175-.49.175-1.013v-.404h1.795v.455c0 .911-.217 1.597-.657 2.06-.435.458-1.089.686-1.958.686-.781 0-1.398-.242-1.847-.731-.448-.486-.676-1.157-.676-2.014v-3.986c0-.768.249-1.398.742-1.882s1.128-.727 1.911-.727c.799 0 1.413.225 1.843.674.429.448.642 1.093.642 1.935v2.263h-3.338zm-3.125 3.838c-.271.336-.669.501-1.187.501-.343 0-.646-.062-.912-.191-.267-.13-.519-.329-.746-.602v.681h-1.764v-12.032h1.764v3.874c.237-.269.485-.477.748-.616.267-.141.534-.211.805-.211.554 0 .975.189 1.265.565.294.379.438.934.438 1.66v4.926c0 .628-.137 1.109-.411 1.445zm-7.665.389v-.976c-.325.361-.658.636-1.009.822-.349.191-.686.283-1.014.283-.405 0-.705-.13-.913-.396-.201-.266-.305-.658-.305-1.189v-7.422h1.744v6.81c0 .211.037.362.107.455.077.096.196.142.358.142.128 0 .292-.062.488-.188.197-.125.375-.282.542-.475v-6.744h1.744v8.878zm-6.042-10.284v10.284h-1.968v-10.284h-2.034v-1.748h6.036v1.748zm8.078-5.621c0-.002 12.08.018 13.514 1.45 1.439 1.434 1.455 8.513 1.455 8.554 0 0-.012 7.117-1.455 8.556-1.434 1.43-13.514 1.461-13.514 1.461s-12.079-.031-13.516-1.462c-1.438-1.434-1.441-8.502-1.441-8.556 0-.04.004-7.12 1.441-8.554 1.438-1.432 13.516-1.451 13.516-1.449zm9.526-3.724h-1.966v-1.08c-.358.397-.736.703-1.13.909-.392.208-.771.312-1.14.312-.458 0-.797-.146-1.027-.438-.229-.291-.345-.727-.345-1.311v-8.173h1.962v7.497c0 .231.045.399.127.502.08.104.216.156.399.156.143 0 .327-.068.548-.206.22-.137.423-.312.605-.526v-7.423h1.966v9.781zm-10.673-1.667c.139.147.339.219.6.219.266 0 .476-.074.634-.223.157-.152.235-.358.235-.618v-5.327c0-.214-.08-.387-.241-.519-.16-.131-.37-.196-.628-.196-.241 0-.435.065-.586.196-.148.132-.225.305-.225.519v5.327c0 .267.072.473.211.622zm-1.439-7.685c.528-.449 1.241-.675 2.132-.675.812 0 1.48.237 2.001.712.517.473.777 1.083.777 1.827v5.052c0 .836-.255 1.49-.762 1.968-.513.476-1.212.714-2.106.714-.858 0-1.547-.246-2.064-.736-.513-.491-.772-1.152-.772-1.983v-5.068c-.001-.76.263-1.363.794-1.811zm-6.146-3.903h-2.229l2.634 8.003v5.252h2.213v-5.5l2.574-7.755h-2.25l-1.366 5.298h-.139zm-21.262-12h60v60h-60z" fill="#cf3427" fill-rule="evenodd"/></svg>